<svg width="215" height="177" viewBox="0 0 215 177" fill="none" xmlns="http://www.w3.org/2000/svg">
<path d="M113.176 158.902C111.529 157.15 108.975 157.153 107.203 158.635C99.6678 165.279 92.8809 168.128 86.2794 168.584C77.978 169.156 69.2646 166.181 60.2688 161.532C56.9224 159.886 48.8067 157.828 44.3104 158.252C30.6643 159.537 28.6626 160.724 21.8002 163.775C19.7233 164.698 19.1674 167.595 20.3237 169.555C20.5342 170.221 21.081 170.698 21.6309 171.339C21.8068 171.33 21.807 171.33 21.807 171.33C23.4032 172.237 24.9333 172.307 26.5735 171.339C26.5735 171.339 26.5734 171.339 26.7368 171.327C27.8585 170.23 34.4474 167.057 42.2398 166.52C46.6356 166.216 51.4399 166.731 56.7155 169.259C66.0569 173.89 76.0174 177.631 86.8513 176.883C87.0179 176.871 87.0177 176.871 87.0177 176.871C95.4824 176.29 104.265 172.79 113.094 165.034C114.678 163.391 114.659 160.674 113.176 158.902V158.902Z" fill="#FAFAFA"/>
<path d="M0 71.872C0.20738 111.554 30.1769 143.747 68.4447 143.747C106.32 143.747 136.082 111.554 136.289 71.872C136.082 32.193 106.32 0 68.4447 0C30.1769 0 0.20738 32.193 0 71.872ZM9.9259 71.872C9.9259 36.8486 36.2569 10.1215 68.4447 10.1215C99.6397 10.1215 125.955 36.8486 126.165 71.872C125.955 106.493 99.6397 133.82 68.4447 133.82C36.2569 133.82 9.9259 106.493 9.9259 71.872Z" fill="#FAFAFA"/>
<path d="M124.541 131.204C136.456 138.925 150.834 143.436 166.312 143.436C183.921 143.436 200.096 137.587 212.583 128.103C214.836 126.492 215.245 122.86 213.202 121.048C211.766 118.626 208.489 118.22 206.032 119.835C195.386 128.709 181.463 133.55 166.312 133.55C153.125 133.55 140.909 129.803 130.734 123.391C129.107 125.779 127.432 127.949 125.713 129.91C125.324 130.349 124.934 130.783 124.541 131.204V131.204ZM131.529 19.81C141.543 13.6622 153.467 10.1094 166.312 10.1094C181.463 10.1094 195.386 15.3555 206.44 23.8278C208.489 25.4362 211.766 25.2383 213.4 22.8194C215.245 21.0006 214.836 17.5766 212.583 15.7577C200.096 6.27702 183.921 0.226562 166.312 0.226562C150.891 0.305097 136.566 4.79739 124.676 12.5001C126.97 14.3755 129.245 16.7816 131.529 19.81V19.81Z" fill="#FAFAFA"/>
</svg>
