<svg width="166" height="26" viewBox="0 0 166 26" fill="none" xmlns="http://www.w3.org/2000/svg">
<path d="M82.74 13.02C82.74 11.66 83.0533 10.44 83.68 9.36C84.32 8.28 85.18 7.44 86.26 6.84C87.3533 6.22667 88.5467 5.92 89.84 5.92C91.32 5.92 92.6333 6.28667 93.78 7.02C94.94 7.74 95.78 8.76667 96.3 10.1H93.56C93.2 9.36667 92.7 8.82 92.06 8.46C91.42 8.1 90.68 7.92 89.84 7.92C88.92 7.92 88.1 8.12667 87.38 8.54C86.66 8.95333 86.0933 9.54667 85.68 10.32C85.28 11.0933 85.08 11.9933 85.08 13.02C85.08 14.0467 85.28 14.9467 85.68 15.72C86.0933 16.4933 86.66 17.0933 87.38 17.52C88.1 17.9333 88.92 18.14 89.84 18.14C90.68 18.14 91.42 17.96 92.06 17.6C92.7 17.24 93.2 16.6933 93.56 15.96H96.3C95.78 17.2933 94.94 18.32 93.78 19.04C92.6333 19.76 91.32 20.12 89.84 20.12C88.5333 20.12 87.34 19.82 86.26 19.22C85.18 18.6067 84.32 17.76 83.68 16.68C83.0533 15.6 82.74 14.38 82.74 13.02ZM102.949 20.18C101.909 20.18 100.969 19.9467 100.129 19.48C99.2887 19 98.6287 18.3333 98.1487 17.48C97.6687 16.6133 97.4287 15.6133 97.4287 14.48C97.4287 13.36 97.6754 12.3667 98.1687 11.5C98.6621 10.6333 99.3354 9.96667 100.189 9.5C101.042 9.03333 101.995 8.8 103.049 8.8C104.102 8.8 105.055 9.03333 105.909 9.5C106.762 9.96667 107.435 10.6333 107.929 11.5C108.422 12.3667 108.669 13.36 108.669 14.48C108.669 15.6 108.415 16.5933 107.909 17.46C107.402 18.3267 106.709 19 105.829 19.48C104.962 19.9467 104.002 20.18 102.949 20.18ZM102.949 18.2C103.535 18.2 104.082 18.06 104.589 17.78C105.109 17.5 105.529 17.08 105.849 16.52C106.169 15.96 106.329 15.28 106.329 14.48C106.329 13.68 106.175 13.0067 105.869 12.46C105.562 11.9 105.155 11.48 104.649 11.2C104.142 10.92 103.595 10.78 103.009 10.78C102.422 10.78 101.875 10.92 101.369 11.2C100.875 11.48 100.482 11.9 100.189 12.46C99.8954 13.0067 99.7488 13.68 99.7488 14.48C99.7488 15.6667 100.049 16.5867 100.649 17.24C101.262 17.88 102.029 18.2 102.949 18.2ZM112.403 5.2V20H110.123V5.2H112.403ZM116.876 5.2V20H114.596V5.2H116.876ZM118.31 14.44C118.31 13.3333 118.536 12.3533 118.99 11.5C119.456 10.6467 120.083 9.98667 120.87 9.52C121.67 9.04 122.55 8.8 123.51 8.8C124.376 8.8 125.13 8.97333 125.77 9.32C126.423 9.65333 126.943 10.0733 127.33 10.58V8.98H129.63V20H127.33V18.36C126.943 18.88 126.416 19.3133 125.75 19.66C125.083 20.0067 124.323 20.18 123.47 20.18C122.523 20.18 121.656 19.94 120.87 19.46C120.083 18.9667 119.456 18.2867 118.99 17.42C118.536 16.54 118.31 15.5467 118.31 14.44ZM127.33 14.48C127.33 13.72 127.17 13.06 126.85 12.5C126.543 11.94 126.136 11.5133 125.63 11.22C125.123 10.9267 124.576 10.78 123.99 10.78C123.403 10.78 122.856 10.9267 122.35 11.22C121.843 11.5 121.43 11.92 121.11 12.48C120.803 13.0267 120.65 13.68 120.65 14.44C120.65 15.2 120.803 15.8667 121.11 16.44C121.43 17.0133 121.843 17.4533 122.35 17.76C122.87 18.0533 123.416 18.2 123.99 18.2C124.576 18.2 125.123 18.0533 125.63 17.76C126.136 17.4667 126.543 17.04 126.85 16.48C127.17 15.9067 127.33 15.24 127.33 14.48ZM134.104 10.6C134.491 10.0933 135.018 9.66667 135.684 9.32C136.351 8.97333 137.104 8.8 137.944 8.8C138.904 8.8 139.778 9.04 140.564 9.52C141.364 9.98667 141.991 10.6467 142.444 11.5C142.898 12.3533 143.124 13.3333 143.124 14.44C143.124 15.5467 142.898 16.54 142.444 17.42C141.991 18.2867 141.364 18.9667 140.564 19.46C139.778 19.94 138.904 20.18 137.944 20.18C137.104 20.18 136.358 20.0133 135.704 19.68C135.051 19.3333 134.518 18.9067 134.104 18.4V25.24H131.824V8.98H134.104V10.6ZM140.804 14.44C140.804 13.68 140.644 13.0267 140.324 12.48C140.018 11.92 139.604 11.5 139.084 11.22C138.578 10.9267 138.031 10.78 137.444 10.78C136.871 10.78 136.324 10.9267 135.804 11.22C135.298 11.5133 134.884 11.94 134.564 12.5C134.258 13.06 134.104 13.72 134.104 14.48C134.104 15.24 134.258 15.9067 134.564 16.48C134.884 17.04 135.298 17.4667 135.804 17.76C136.324 18.0533 136.871 18.2 137.444 18.2C138.031 18.2 138.578 18.0533 139.084 17.76C139.604 17.4533 140.018 17.0133 140.324 16.44C140.644 15.8667 140.804 15.2 140.804 14.44ZM148.579 20.18C147.712 20.18 146.932 20.0267 146.239 19.72C145.559 19.4 145.019 18.9733 144.619 18.44C144.219 17.8933 144.006 17.2867 143.979 16.62H146.339C146.379 17.0867 146.599 17.48 146.999 17.8C147.412 18.1067 147.926 18.26 148.539 18.26C149.179 18.26 149.672 18.14 150.019 17.9C150.379 17.6467 150.559 17.3267 150.559 16.94C150.559 16.5267 150.359 16.22 149.959 16.02C149.572 15.82 148.952 15.6 148.099 15.36C147.272 15.1333 146.599 14.9133 146.079 14.7C145.559 14.4867 145.106 14.16 144.719 13.72C144.346 13.28 144.159 12.7 144.159 11.98C144.159 11.3933 144.332 10.86 144.679 10.38C145.026 9.88667 145.519 9.5 146.159 9.22C146.812 8.94 147.559 8.8 148.399 8.8C149.652 8.8 150.659 9.12 151.419 9.76C152.192 10.3867 152.606 11.2467 152.659 12.34H150.379C150.339 11.8467 150.139 11.4533 149.779 11.16C149.419 10.8667 148.932 10.72 148.319 10.72C147.719 10.72 147.259 10.8333 146.939 11.06C146.619 11.2867 146.459 11.5867 146.459 11.96C146.459 12.2533 146.566 12.5 146.779 12.7C146.992 12.9 147.252 13.06 147.559 13.18C147.866 13.2867 148.319 13.4267 148.919 13.6C149.719 13.8133 150.372 14.0333 150.879 14.26C151.399 14.4733 151.846 14.7933 152.219 15.22C152.592 15.6467 152.786 16.2133 152.799 16.92C152.799 17.5467 152.626 18.1067 152.279 18.6C151.932 19.0933 151.439 19.48 150.799 19.76C150.172 20.04 149.432 20.18 148.579 20.18ZM164.563 14.22C164.563 14.6333 164.536 15.0067 164.483 15.34H156.063C156.129 16.22 156.456 16.9267 157.043 17.46C157.629 17.9933 158.349 18.26 159.203 18.26C160.429 18.26 161.296 17.7467 161.803 16.72H164.263C163.929 17.7333 163.323 18.5667 162.443 19.22C161.576 19.86 160.496 20.18 159.203 20.18C158.149 20.18 157.203 19.9467 156.363 19.48C155.536 19 154.883 18.3333 154.403 17.48C153.936 16.6133 153.703 15.6133 153.703 14.48C153.703 13.3467 153.929 12.3533 154.383 11.5C154.849 10.6333 155.496 9.96667 156.323 9.5C157.163 9.03333 158.123 8.8 159.203 8.8C160.243 8.8 161.169 9.02667 161.983 9.48C162.796 9.93333 163.429 10.5733 163.883 11.4C164.336 12.2133 164.563 13.1533 164.563 14.22ZM162.183 13.5C162.169 12.66 161.869 11.9867 161.283 11.48C160.696 10.9733 159.969 10.72 159.103 10.72C158.316 10.72 157.643 10.9733 157.083 11.48C156.523 11.9733 156.189 12.6467 156.083 13.5H162.183Z" fill="white"/>
<path d="M0.5 14L0.5 12L20.5 12V14L0.5 14Z" fill="white"/>
</svg>
