<?xml version="1.0" encoding="UTF-8"?>
<!DOCTYPE svg PUBLIC "-//W3C//DTD SVG 1.1//EN" "http://www.w3.org/Graphics/SVG/1.1/DTD/svg11.dtd">
<!-- Creator: CorelDRAW 2021 (64-Bit) -->
<svg xmlns="http://www.w3.org/2000/svg" xml:space="preserve" width="480px" height="480px" version="1.1" style="shape-rendering:geometricPrecision; text-rendering:geometricPrecision; image-rendering:optimizeQuality; fill-rule:evenodd; clip-rule:evenodd"
viewBox="0 0 480 480"
 xmlns:xlink="http://www.w3.org/1999/xlink"
 xmlns:xodm="http://www.corel.com/coreldraw/odm/2003">
 <defs>
  <style type="text/css">
   <![CDATA[
    .fil1 {fill:#B0BEC5;fill-rule:nonzero}
    .fil2 {fill:#CFD8DC;fill-rule:nonzero}
    .fil0 {fill:white;fill-rule:nonzero}
   ]]>
  </style>
 </defs>
 <g id="Слой_x0020_1">
  <metadata id="CorelCorpID_0Corel-Layer"/>
  <path class="fil0" d="M433.66 70.38l-67.36 343.91c0,0 -2.9,15.71 -22.39,15.71 -10.36,0 -15.7,-4.93 -15.7,-4.93l-145.9 -121.06 -71.39 -35.99 -91.61 -24.36c0,0 -16.31,-4.71 -16.31,-18.2 0,-11.23 16.78,-16.59 16.78,-16.59l383.28 -152.27c-0.01,-0.02 11.71,-4.23 20.25,-4.21 5.26,0 11.25,2.25 11.25,9 0,4.49 -0.9,8.99 -0.9,8.99z"/>
  <path class="fil1" d="M236.76 349.18l-61.6 60.66c0,0 -2.68,2.07 -6.26,2.16 -1.24,0.04 -2.57,-0.16 -3.94,-0.77l17.33 -107.26 54.47 45.21z"/>
  <path class="fil2" d="M360.78 127.84c-3.04,-3.95 -8.65,-4.67 -12.61,-1.67l-237.28 142c0,0 37.87,105.95 43.64,124.29 5.79,18.36 10.43,18.79 10.43,18.79l17.34 -107.26 176.79 -163.56c3.95,-3 4.69,-8.63 1.69,-12.59z"/>
 </g>
</svg>
