<?xml version="1.0" encoding="UTF-8"?>
<!DOCTYPE svg PUBLIC "-//W3C//DTD SVG 1.1//EN" "http://www.w3.org/Graphics/SVG/1.1/DTD/svg11.dtd">
<!-- Creator: CorelDRAW 2021 (64-Bit) -->
<svg xmlns="http://www.w3.org/2000/svg" xml:space="preserve" width="480px" height="480px" version="1.1" style="shape-rendering:geometricPrecision; text-rendering:geometricPrecision; image-rendering:optimizeQuality; fill-rule:evenodd; clip-rule:evenodd"
viewBox="0 0 480 480"
 xmlns:xlink="http://www.w3.org/1999/xlink"
 xmlns:xodm="http://www.corel.com/coreldraw/odm/2003">
 <defs>
  <style type="text/css">
   <![CDATA[
    .fil0 {fill:#FEFEFE}
   ]]>
  </style>
 </defs>
 <g id="Слой_x0020_1">
  <metadata id="CorelCorpID_0Corel-Layer"/>
  <path class="fil0" d="M3 237.67c6.57,15.4 42.27,21.63 58.26,26.73 18.82,5.99 47.79,16.71 66.23,20.32 20.78,-10.78 45.72,-28.46 66.14,-41.25l130.84 -82.56c13.3,-8.71 55.28,-40.63 67.6,-34.51 -2,12.49 -59.6,56.4 -74.51,71.67 -7.84,8.03 -17.49,16.8 -26.14,24.93 -8.29,7.79 -16.35,13.79 -25.86,22.83 -12.92,12.27 -74.23,64.01 -76.86,70.76l-8.09 108.7c25.49,-2.76 42.71,-37.17 74.46,-60l102.09 74.18c30.18,21.83 40.75,7.36 47.37,-21.82 5.73,-25.26 11.24,-50.04 16.15,-75.19l46.56 -217.73c4.78,-24.33 17.39,-50.34 -3.04,-69.94 -29.01,-2.94 -90.94,28.44 -120.96,39.35 -89.59,32.57 -199.96,76.62 -291.21,112.24 -16.12,6.29 -45.11,12.4 -49.03,31.29z"/>
 </g>
</svg>
